<mxfile host="app.diagrams.net" modified="2023-10-14T16:18:15.354Z" agent="Mozilla/5.0 (Windows NT 10.0; Win64; x64) AppleWebKit/537.36 (KHTML, like Gecko) Chrome/117.0.0.0 Safari/537.36" etag="287MsQuiYOaV2yRMv96n" version="22.0.4" type="device" pages="2">
  <diagram name="Leaderboard" id="2YBvvXClWsGukQMizWep">
    <mxGraphModel dx="1050" dy="566" grid="1" gridSize="10" guides="1" tooltips="1" connect="1" arrows="1" fold="1" page="1" pageScale="1" pageWidth="850" pageHeight="1100" math="0" shadow="0">
      <root>
        <mxCell id="0" />
        <mxCell id="1" parent="0" />
        <mxCell id="AVFjHgKW3stGLYQa3Q68-41" value="&lt;font style=&quot;font-size: 11px;&quot;&gt;get_leaderboard(category)&lt;/font&gt;" style="edgeStyle=orthogonalEdgeStyle;rounded=0;orthogonalLoop=1;jettySize=auto;html=1;" parent="1" edge="1">
          <mxGeometry x="-0.0001" y="10" relative="1" as="geometry">
            <mxPoint x="205" y="320" as="sourcePoint" />
            <mxPoint x="425" y="320" as="targetPoint" />
            <Array as="points">
              <mxPoint x="380" y="320" />
            </Array>
            <mxPoint y="1" as="offset" />
          </mxGeometry>
        </mxCell>
        <mxCell id="AVFjHgKW3stGLYQa3Q68-48" value="Member" style="shape=umlActor;verticalLabelPosition=bottom;verticalAlign=top;html=1;outlineConnect=0;" parent="1" vertex="1">
          <mxGeometry x="181.64" y="170" width="30" height="60" as="geometry" />
        </mxCell>
        <mxCell id="AVFjHgKW3stGLYQa3Q68-49" value="Database" style="shape=cylinder3;whiteSpace=wrap;html=1;boundedLbl=1;backgroundOutline=1;size=15;" parent="1" vertex="1">
          <mxGeometry x="683.36" y="160" width="60" height="80" as="geometry" />
        </mxCell>
        <mxCell id="AVFjHgKW3stGLYQa3Q68-50" value="status,leaderboard" style="edgeStyle=orthogonalEdgeStyle;rounded=0;orthogonalLoop=1;jettySize=auto;html=1;dashed=1;" parent="1" edge="1">
          <mxGeometry x="0.2232" relative="1" as="geometry">
            <mxPoint x="453.36" y="380" as="targetPoint" />
            <mxPoint x="633.36" y="380" as="sourcePoint" />
            <Array as="points">
              <mxPoint x="685" y="380" />
              <mxPoint x="685" y="380" />
            </Array>
            <mxPoint as="offset" />
          </mxGeometry>
        </mxCell>
        <mxCell id="AVFjHgKW3stGLYQa3Q68-51" value="" style="rounded=0;whiteSpace=wrap;html=1;rotation=-90;" parent="1" vertex="1">
          <mxGeometry x="688.36" y="360" width="50" height="10" as="geometry" />
        </mxCell>
        <mxCell id="AVFjHgKW3stGLYQa3Q68-52" value="" style="endArrow=none;dashed=1;html=1;dashPattern=1 3;strokeWidth=2;rounded=0;exitX=1;exitY=0.5;exitDx=0;exitDy=0;entryX=0.5;entryY=1;entryDx=0;entryDy=0;entryPerimeter=0;" parent="1" source="AVFjHgKW3stGLYQa3Q68-51" target="AVFjHgKW3stGLYQa3Q68-49" edge="1">
          <mxGeometry width="50" height="50" relative="1" as="geometry">
            <mxPoint x="805" y="330" as="sourcePoint" />
            <mxPoint x="855" y="280" as="targetPoint" />
          </mxGeometry>
        </mxCell>
        <mxCell id="AVFjHgKW3stGLYQa3Q68-53" value="" style="endArrow=none;dashed=1;html=1;dashPattern=1 3;strokeWidth=2;rounded=0;exitX=0.957;exitY=1;exitDx=0;exitDy=0;exitPerimeter=0;" parent="1" source="AVFjHgKW3stGLYQa3Q68-62" edge="1">
          <mxGeometry width="50" height="50" relative="1" as="geometry">
            <mxPoint x="712.7599999999999" y="885.98" as="sourcePoint" />
            <mxPoint x="713.96" y="390" as="targetPoint" />
          </mxGeometry>
        </mxCell>
        <mxCell id="AVFjHgKW3stGLYQa3Q68-54" value="Leaderboard" style="rounded=0;whiteSpace=wrap;html=1;" parent="1" vertex="1">
          <mxGeometry x="378.36" y="170" width="120" height="60" as="geometry" />
        </mxCell>
        <mxCell id="AVFjHgKW3stGLYQa3Q68-55" value="" style="endArrow=none;dashed=1;html=1;dashPattern=1 3;strokeWidth=2;rounded=0;entryX=0.5;entryY=1;entryDx=0;entryDy=0;exitX=0;exitY=0.5;exitDx=0;exitDy=0;" parent="1" source="AVFjHgKW3stGLYQa3Q68-67" target="AVFjHgKW3stGLYQa3Q68-54" edge="1">
          <mxGeometry width="50" height="50" relative="1" as="geometry">
            <mxPoint x="585" y="380" as="sourcePoint" />
            <mxPoint x="584.5" y="270" as="targetPoint" />
            <Array as="points" />
          </mxGeometry>
        </mxCell>
        <mxCell id="AVFjHgKW3stGLYQa3Q68-56" value="&lt;font style=&quot;font-size: 11px;&quot;&gt;get_leaderboard(category)&lt;/font&gt;" style="edgeStyle=orthogonalEdgeStyle;rounded=0;orthogonalLoop=1;jettySize=auto;html=1;" parent="1" edge="1">
          <mxGeometry x="0.0228" y="10" relative="1" as="geometry">
            <mxPoint x="683.36" y="350" as="targetPoint" />
            <Array as="points">
              <mxPoint x="451.36" y="350" />
            </Array>
            <mxPoint as="offset" />
            <mxPoint x="451.36" y="350" as="sourcePoint" />
          </mxGeometry>
        </mxCell>
        <mxCell id="AVFjHgKW3stGLYQa3Q68-57" value="" style="endArrow=none;dashed=1;html=1;dashPattern=1 3;strokeWidth=2;rounded=0;exitX=0.1;exitY=1.007;exitDx=0;exitDy=0;exitPerimeter=0;" parent="1" source="AVFjHgKW3stGLYQa3Q68-62" edge="1">
          <mxGeometry width="50" height="50" relative="1" as="geometry">
            <mxPoint x="191.64" y="760" as="sourcePoint" />
            <mxPoint x="191.64" y="270" as="targetPoint" />
            <Array as="points">
              <mxPoint x="191.64" y="270" />
              <mxPoint x="191.64" y="250" />
            </Array>
          </mxGeometry>
        </mxCell>
        <mxCell id="AVFjHgKW3stGLYQa3Q68-59" value="status==200" style="text;html=1;strokeColor=none;fillColor=none;align=center;verticalAlign=middle;whiteSpace=wrap;rounded=0;" parent="1" vertex="1">
          <mxGeometry x="190" y="450" width="120" height="30" as="geometry" />
        </mxCell>
        <mxCell id="AVFjHgKW3stGLYQa3Q68-62" value="alt" style="shape=umlFrame;whiteSpace=wrap;html=1;pointerEvents=0;" parent="1" vertex="1">
          <mxGeometry x="131.64" y="450" width="608.36" height="220" as="geometry" />
        </mxCell>
        <mxCell id="AVFjHgKW3stGLYQa3Q68-64" value="" style="endArrow=classic;html=1;rounded=0;dashed=1;" parent="1" edge="1">
          <mxGeometry width="50" height="50" relative="1" as="geometry">
            <mxPoint x="425" y="630" as="sourcePoint" />
            <mxPoint x="205" y="630" as="targetPoint" />
          </mxGeometry>
        </mxCell>
        <mxCell id="AVFjHgKW3stGLYQa3Q68-65" value="error" style="edgeLabel;html=1;align=center;verticalAlign=middle;resizable=0;points=[];" parent="AVFjHgKW3stGLYQa3Q68-64" vertex="1" connectable="0">
          <mxGeometry x="0.2286" y="1" relative="1" as="geometry">
            <mxPoint x="25" y="-1" as="offset" />
          </mxGeometry>
        </mxCell>
        <mxCell id="AVFjHgKW3stGLYQa3Q68-66" value="" style="endArrow=none;dashed=1;html=1;dashPattern=1 3;strokeWidth=2;rounded=0;" parent="1" edge="1">
          <mxGeometry width="50" height="50" relative="1" as="geometry">
            <mxPoint x="439" y="660" as="sourcePoint" />
            <mxPoint x="438.84000000000003" y="369.08" as="targetPoint" />
            <Array as="points">
              <mxPoint x="438.48" y="429.08" />
            </Array>
          </mxGeometry>
        </mxCell>
        <mxCell id="AVFjHgKW3stGLYQa3Q68-67" value="" style="rounded=0;whiteSpace=wrap;html=1;direction=south;" parent="1" vertex="1">
          <mxGeometry x="433.36" y="315" width="10" height="90" as="geometry" />
        </mxCell>
        <mxCell id="AVFjHgKW3stGLYQa3Q68-76" value="" style="endArrow=classic;html=1;rounded=0;dashed=1;" parent="1" edge="1">
          <mxGeometry width="50" height="50" relative="1" as="geometry">
            <mxPoint x="431.64" y="510" as="sourcePoint" />
            <mxPoint x="211.64" y="510" as="targetPoint" />
          </mxGeometry>
        </mxCell>
        <mxCell id="AVFjHgKW3stGLYQa3Q68-77" value="success,leaderboard" style="edgeLabel;html=1;align=center;verticalAlign=middle;resizable=0;points=[];" parent="AVFjHgKW3stGLYQa3Q68-76" vertex="1" connectable="0">
          <mxGeometry x="0.2286" y="1" relative="1" as="geometry">
            <mxPoint y="-1" as="offset" />
          </mxGeometry>
        </mxCell>
        <mxCell id="AVFjHgKW3stGLYQa3Q68-78" value="" style="endArrow=none;dashed=1;html=1;dashPattern=1 3;strokeWidth=2;rounded=0;entryX=1.003;entryY=0.503;entryDx=0;entryDy=0;entryPerimeter=0;exitX=0.001;exitY=0.501;exitDx=0;exitDy=0;exitPerimeter=0;" parent="1" source="AVFjHgKW3stGLYQa3Q68-62" target="AVFjHgKW3stGLYQa3Q68-62" edge="1">
          <mxGeometry width="50" height="50" relative="1" as="geometry">
            <mxPoint x="411.64" y="860" as="sourcePoint" />
            <mxPoint x="571.64" y="640" as="targetPoint" />
            <Array as="points" />
          </mxGeometry>
        </mxCell>
        <mxCell id="CA1KtOlo9pMda0Fb6oHR-1" value="status==200" style="text;html=1;strokeColor=none;fillColor=none;align=center;verticalAlign=middle;whiteSpace=wrap;rounded=0;" parent="1" vertex="1">
          <mxGeometry x="190" y="580" width="120" height="30" as="geometry" />
        </mxCell>
      </root>
    </mxGraphModel>
  </diagram>
  <diagram id="HXilfmiYUSw4H4rOt3-w" name="Share Rank">
    <mxGraphModel dx="1900" dy="566" grid="1" gridSize="10" guides="1" tooltips="1" connect="1" arrows="1" fold="1" page="1" pageScale="1" pageWidth="850" pageHeight="1100" math="0" shadow="0">
      <root>
        <mxCell id="0" />
        <mxCell id="1" parent="0" />
        <mxCell id="k0yDjebqSudIvEWdZLD2-1" value="" style="endArrow=classic;html=1;rounded=0;" parent="1" edge="1">
          <mxGeometry width="50" height="50" relative="1" as="geometry">
            <mxPoint x="-717.37" y="235" as="sourcePoint" />
            <mxPoint x="-539.01" y="235" as="targetPoint" />
          </mxGeometry>
        </mxCell>
        <mxCell id="k0yDjebqSudIvEWdZLD2-2" value="Share_achv(platform)" style="edgeLabel;html=1;align=center;verticalAlign=middle;resizable=0;points=[];" parent="k0yDjebqSudIvEWdZLD2-1" vertex="1" connectable="0">
          <mxGeometry x="-0.2909" y="-1" relative="1" as="geometry">
            <mxPoint x="20" y="-16" as="offset" />
          </mxGeometry>
        </mxCell>
        <mxCell id="k0yDjebqSudIvEWdZLD2-3" value="Social_media_API" style="rounded=0;whiteSpace=wrap;html=1;" parent="1" vertex="1">
          <mxGeometry x="-209.01" y="100" width="120" height="60" as="geometry" />
        </mxCell>
        <mxCell id="k0yDjebqSudIvEWdZLD2-6" value="" style="endArrow=classic;html=1;rounded=0;" parent="1" edge="1">
          <mxGeometry width="50" height="50" relative="1" as="geometry">
            <mxPoint x="-479.01" y="360" as="sourcePoint" />
            <mxPoint x="-169.01" y="361" as="targetPoint" />
          </mxGeometry>
        </mxCell>
        <mxCell id="k0yDjebqSudIvEWdZLD2-7" value="Send_rank(platform,rank)" style="edgeLabel;html=1;align=center;verticalAlign=middle;resizable=0;points=[];" parent="k0yDjebqSudIvEWdZLD2-6" vertex="1" connectable="0">
          <mxGeometry x="-0.2964" relative="1" as="geometry">
            <mxPoint as="offset" />
          </mxGeometry>
        </mxCell>
        <mxCell id="k0yDjebqSudIvEWdZLD2-8" value="Member" style="rounded=0;whiteSpace=wrap;html=1;" parent="1" vertex="1">
          <mxGeometry x="-567.37" y="100" width="120" height="60" as="geometry" />
        </mxCell>
        <mxCell id="k0yDjebqSudIvEWdZLD2-9" style="edgeStyle=orthogonalEdgeStyle;rounded=0;orthogonalLoop=1;jettySize=auto;html=1;dashed=1;" parent="1" edge="1">
          <mxGeometry relative="1" as="geometry">
            <mxPoint x="-728.6" y="470" as="targetPoint" />
            <mxPoint x="-508.6" y="470" as="sourcePoint" />
            <Array as="points">
              <mxPoint x="-508.6" y="470" />
            </Array>
          </mxGeometry>
        </mxCell>
        <mxCell id="k0yDjebqSudIvEWdZLD2-10" value="success" style="edgeLabel;html=1;align=center;verticalAlign=middle;resizable=0;points=[];" parent="k0yDjebqSudIvEWdZLD2-9" vertex="1" connectable="0">
          <mxGeometry x="-0.1236" y="4" relative="1" as="geometry">
            <mxPoint x="-14" y="-3" as="offset" />
          </mxGeometry>
        </mxCell>
        <mxCell id="k0yDjebqSudIvEWdZLD2-11" value="" style="rounded=0;whiteSpace=wrap;html=1;rotation=-90;" parent="1" vertex="1">
          <mxGeometry x="-598.6" y="296.23" width="182.46" height="10" as="geometry" />
        </mxCell>
        <mxCell id="k0yDjebqSudIvEWdZLD2-12" value="" style="endArrow=none;dashed=1;html=1;dashPattern=1 3;strokeWidth=2;rounded=0;entryX=0.5;entryY=1;entryDx=0;entryDy=0;exitX=1;exitY=0.5;exitDx=0;exitDy=0;" parent="1" source="k0yDjebqSudIvEWdZLD2-11" target="k0yDjebqSudIvEWdZLD2-8" edge="1">
          <mxGeometry width="50" height="50" relative="1" as="geometry">
            <mxPoint x="-517.37" y="200" as="sourcePoint" />
            <mxPoint x="-497.37" y="180" as="targetPoint" />
          </mxGeometry>
        </mxCell>
        <mxCell id="k0yDjebqSudIvEWdZLD2-13" value="" style="endArrow=none;dashed=1;html=1;dashPattern=1 3;strokeWidth=2;rounded=0;" parent="1" edge="1">
          <mxGeometry width="50" height="50" relative="1" as="geometry">
            <mxPoint x="-507.01" y="680" as="sourcePoint" />
            <mxPoint x="-507.01" y="380" as="targetPoint" />
          </mxGeometry>
        </mxCell>
        <mxCell id="k0yDjebqSudIvEWdZLD2-14" value="Member" style="shape=umlActor;verticalLabelPosition=bottom;verticalAlign=top;html=1;outlineConnect=0;" parent="1" vertex="1">
          <mxGeometry x="-737.37" y="100" width="30" height="60" as="geometry" />
        </mxCell>
        <mxCell id="k0yDjebqSudIvEWdZLD2-15" value="status" style="edgeStyle=orthogonalEdgeStyle;rounded=0;orthogonalLoop=1;jettySize=auto;html=1;dashed=1;" parent="1" edge="1">
          <mxGeometry x="0.4074" relative="1" as="geometry">
            <mxPoint x="-479.01" y="390" as="targetPoint" />
            <mxPoint x="-169.00999999999988" y="390" as="sourcePoint" />
            <Array as="points">
              <mxPoint x="-199.00999999999988" y="390" />
              <mxPoint x="-199.00999999999988" y="390" />
            </Array>
            <mxPoint as="offset" />
          </mxGeometry>
        </mxCell>
        <mxCell id="k0yDjebqSudIvEWdZLD2-16" value="" style="rounded=0;whiteSpace=wrap;html=1;rotation=-90;" parent="1" vertex="1">
          <mxGeometry x="-174.01" y="365" width="50" height="10" as="geometry" />
        </mxCell>
        <mxCell id="k0yDjebqSudIvEWdZLD2-17" value="" style="endArrow=none;dashed=1;html=1;dashPattern=1 3;strokeWidth=2;rounded=0;exitX=1;exitY=0.5;exitDx=0;exitDy=0;entryX=0.5;entryY=1;entryDx=0;entryDy=0;entryPerimeter=0;" parent="1" source="k0yDjebqSudIvEWdZLD2-16" edge="1">
          <mxGeometry width="50" height="50" relative="1" as="geometry">
            <mxPoint x="-199.00999999999988" y="250" as="sourcePoint" />
            <mxPoint x="-149.00999999999988" y="170" as="targetPoint" />
          </mxGeometry>
        </mxCell>
        <mxCell id="k0yDjebqSudIvEWdZLD2-18" value="" style="endArrow=none;dashed=1;html=1;dashPattern=1 3;strokeWidth=2;rounded=0;" parent="1" edge="1">
          <mxGeometry width="50" height="50" relative="1" as="geometry">
            <mxPoint x="-149.01" y="670" as="sourcePoint" />
            <mxPoint x="-147.01" y="400" as="targetPoint" />
          </mxGeometry>
        </mxCell>
        <mxCell id="k0yDjebqSudIvEWdZLD2-20" value="" style="endArrow=none;dashed=1;html=1;dashPattern=1 3;strokeWidth=2;rounded=0;entryX=0.5;entryY=1;entryDx=0;entryDy=0;" parent="1" edge="1">
          <mxGeometry width="50" height="50" relative="1" as="geometry">
            <mxPoint x="-287.01" y="290" as="sourcePoint" />
            <mxPoint x="-287.3700000000001" y="160" as="targetPoint" />
            <Array as="points" />
          </mxGeometry>
        </mxCell>
        <mxCell id="k0yDjebqSudIvEWdZLD2-21" value="" style="endArrow=none;dashed=1;html=1;dashPattern=1 3;strokeWidth=2;rounded=0;" parent="1" edge="1">
          <mxGeometry width="50" height="50" relative="1" as="geometry">
            <mxPoint x="-729.01" y="680" as="sourcePoint" />
            <mxPoint x="-727.37" y="190" as="targetPoint" />
            <Array as="points">
              <mxPoint x="-727.37" y="190" />
            </Array>
          </mxGeometry>
        </mxCell>
        <mxCell id="k0yDjebqSudIvEWdZLD2-22" value="status==200" style="text;html=1;strokeColor=none;fillColor=none;align=center;verticalAlign=middle;whiteSpace=wrap;rounded=0;" parent="1" vertex="1">
          <mxGeometry x="-718.6" y="420" width="140" height="30" as="geometry" />
        </mxCell>
        <mxCell id="k0yDjebqSudIvEWdZLD2-23" value="status==200" style="text;html=1;strokeColor=none;fillColor=none;align=center;verticalAlign=middle;whiteSpace=wrap;rounded=0;" parent="1" vertex="1">
          <mxGeometry x="-718.6" y="300" width="120" height="30" as="geometry" />
        </mxCell>
        <mxCell id="k0yDjebqSudIvEWdZLD2-26" value="alt" style="shape=umlFrame;whiteSpace=wrap;html=1;pointerEvents=0;" parent="1" vertex="1">
          <mxGeometry x="-777.37" y="300" width="658.36" height="380" as="geometry" />
        </mxCell>
        <mxCell id="k0yDjebqSudIvEWdZLD2-28" value="" style="endArrow=classic;html=1;rounded=0;dashed=1;" parent="1" edge="1">
          <mxGeometry width="50" height="50" relative="1" as="geometry">
            <mxPoint x="-507.37" y="650" as="sourcePoint" />
            <mxPoint x="-727.37" y="650" as="targetPoint" />
          </mxGeometry>
        </mxCell>
        <mxCell id="k0yDjebqSudIvEWdZLD2-29" value="&lt;font style=&quot;font-size: 11px;&quot;&gt;error&lt;/font&gt;" style="edgeLabel;html=1;align=center;verticalAlign=middle;resizable=0;points=[];" parent="k0yDjebqSudIvEWdZLD2-28" vertex="1" connectable="0">
          <mxGeometry x="0.2286" y="1" relative="1" as="geometry">
            <mxPoint x="25" y="-1" as="offset" />
          </mxGeometry>
        </mxCell>
        <mxCell id="k0yDjebqSudIvEWdZLD2-30" value="" style="endArrow=none;dashed=1;html=1;dashPattern=1 3;strokeWidth=2;rounded=0;entryX=1;entryY=0.5;entryDx=0;entryDy=0;" parent="1" target="k0yDjebqSudIvEWdZLD2-31" edge="1">
          <mxGeometry width="50" height="50" relative="1" as="geometry">
            <mxPoint x="-287.01" y="670" as="sourcePoint" />
            <mxPoint x="-287.3699999999999" y="160" as="targetPoint" />
            <Array as="points">
              <mxPoint x="-287.3699999999999" y="350" />
            </Array>
          </mxGeometry>
        </mxCell>
        <mxCell id="k0yDjebqSudIvEWdZLD2-31" value="" style="rounded=0;whiteSpace=wrap;html=1;direction=south;" parent="1" vertex="1">
          <mxGeometry x="-292.37" y="235" width="10" height="55" as="geometry" />
        </mxCell>
        <mxCell id="k0yDjebqSudIvEWdZLD2-32" value="alt" style="shape=umlFrame;whiteSpace=wrap;html=1;pointerEvents=0;" parent="1" vertex="1">
          <mxGeometry x="-767.37" y="420" width="638.36" height="170" as="geometry" />
        </mxCell>
        <mxCell id="k0yDjebqSudIvEWdZLD2-33" value="" style="endArrow=none;dashed=1;html=1;dashPattern=1 3;strokeWidth=2;rounded=0;exitX=0;exitY=0.501;exitDx=0;exitDy=0;exitPerimeter=0;entryX=1.005;entryY=0.497;entryDx=0;entryDy=0;entryPerimeter=0;" parent="1" source="k0yDjebqSudIvEWdZLD2-32" target="k0yDjebqSudIvEWdZLD2-32" edge="1">
          <mxGeometry width="50" height="50" relative="1" as="geometry">
            <mxPoint x="-397.37" y="560" as="sourcePoint" />
            <mxPoint x="-17.36999999999989" y="540" as="targetPoint" />
          </mxGeometry>
        </mxCell>
        <mxCell id="k0yDjebqSudIvEWdZLD2-34" value="status!=200" style="text;html=1;strokeColor=none;fillColor=none;align=center;verticalAlign=middle;whiteSpace=wrap;rounded=0;" parent="1" vertex="1">
          <mxGeometry x="-718.6" y="510" width="140" height="30" as="geometry" />
        </mxCell>
        <mxCell id="k0yDjebqSudIvEWdZLD2-35" value="" style="endArrow=classic;html=1;rounded=0;dashed=1;" parent="1" edge="1">
          <mxGeometry width="50" height="50" relative="1" as="geometry">
            <mxPoint x="-507.37" y="559.5" as="sourcePoint" />
            <mxPoint x="-727.37" y="559.5" as="targetPoint" />
          </mxGeometry>
        </mxCell>
        <mxCell id="k0yDjebqSudIvEWdZLD2-36" value="error" style="edgeLabel;html=1;align=center;verticalAlign=middle;resizable=0;points=[];" parent="k0yDjebqSudIvEWdZLD2-35" vertex="1" connectable="0">
          <mxGeometry x="0.2286" y="1" relative="1" as="geometry">
            <mxPoint x="25" y="-1" as="offset" />
          </mxGeometry>
        </mxCell>
        <mxCell id="k0yDjebqSudIvEWdZLD2-37" value="status!=200" style="text;html=1;strokeColor=none;fillColor=none;align=center;verticalAlign=middle;whiteSpace=wrap;rounded=0;" parent="1" vertex="1">
          <mxGeometry x="-718.6" y="620" width="120" height="30" as="geometry" />
        </mxCell>
        <mxCell id="k0yDjebqSudIvEWdZLD2-42" value="" style="endArrow=none;dashed=1;html=1;dashPattern=1 3;strokeWidth=2;rounded=0;entryX=1;entryY=0.801;entryDx=0;entryDy=0;entryPerimeter=0;exitX=-0.004;exitY=0.803;exitDx=0;exitDy=0;exitPerimeter=0;" parent="1" source="k0yDjebqSudIvEWdZLD2-26" target="k0yDjebqSudIvEWdZLD2-26" edge="1">
          <mxGeometry width="50" height="50" relative="1" as="geometry">
            <mxPoint x="-779.01" y="710" as="sourcePoint" />
            <mxPoint x="-347.37" y="560" as="targetPoint" />
            <Array as="points" />
          </mxGeometry>
        </mxCell>
        <mxCell id="pI3SvccQ3A4hTzfNLf3G-1" value="Database" style="shape=cylinder3;whiteSpace=wrap;html=1;boundedLbl=1;backgroundOutline=1;size=15;" parent="1" vertex="1">
          <mxGeometry x="-317.37" y="80" width="60" height="80" as="geometry" />
        </mxCell>
        <mxCell id="pI3SvccQ3A4hTzfNLf3G-2" value="" style="endArrow=classic;html=1;rounded=0;" parent="1" edge="1">
          <mxGeometry width="50" height="50" relative="1" as="geometry">
            <mxPoint x="-489.01" y="250" as="sourcePoint" />
            <mxPoint x="-310.65" y="250" as="targetPoint" />
          </mxGeometry>
        </mxCell>
        <mxCell id="pI3SvccQ3A4hTzfNLf3G-3" value="get_rank(member_id)" style="edgeLabel;html=1;align=center;verticalAlign=middle;resizable=0;points=[];" parent="pI3SvccQ3A4hTzfNLf3G-2" vertex="1" connectable="0">
          <mxGeometry x="-0.2909" y="-1" relative="1" as="geometry">
            <mxPoint x="20" y="-16" as="offset" />
          </mxGeometry>
        </mxCell>
        <mxCell id="pI3SvccQ3A4hTzfNLf3G-4" value="status,rank" style="edgeStyle=orthogonalEdgeStyle;rounded=0;orthogonalLoop=1;jettySize=auto;html=1;dashed=1;" parent="1" edge="1">
          <mxGeometry x="-0.0248" y="1" relative="1" as="geometry">
            <mxPoint x="-489.01" y="270" as="targetPoint" />
            <mxPoint x="-302.3699999999999" y="269.5" as="sourcePoint" />
            <Array as="points">
              <mxPoint x="-332.3699999999999" y="269.5" />
              <mxPoint x="-332.3699999999999" y="269.5" />
            </Array>
            <mxPoint as="offset" />
          </mxGeometry>
        </mxCell>
      </root>
    </mxGraphModel>
  </diagram>
</mxfile>
